<?xml version="1.0" standalone="no"?>
<!DOCTYPE svg PUBLIC "-//W3C//DTD SVG 20010904//EN"
 "http://www.w3.org/TR/2001/REC-SVG-20010904/DTD/svg10.dtd">
<svg version="1.0" xmlns="http://www.w3.org/2000/svg"
 width="152.000000pt" height="152.000000pt" viewBox="0 0 152.000000 152.000000"
 preserveAspectRatio="xMidYMid meet">
<metadata>
Created by potrace 1.11, written by Peter Selinger 2001-2013
</metadata>
<g transform="translate(0.000000,152.000000) scale(0.100000,-0.100000)"
fill="#000000" stroke="none">
<path d="M683 1498 c-1 -21 -14 -131 -18 -158 -3 -14 -7 -52 -11 -85 -3 -33
-7 -71 -9 -85 -2 -14 -7 -56 -11 -95 -3 -38 -10 -95 -14 -125 -4 -30 -7 -81
-6 -113 l2 -58 -56 -47 c-31 -26 -76 -63 -100 -82 -23 -19 -67 -60 -96 -90
-203 -213 -218 -230 -194 -230 8 0 425 -72 488 -85 17 -3 42 9 85 40 33 25 64
42 68 37 7 -6 130 -240 154 -289 5 -13 13 -23 16 -23 5 0 19 50 36 130 2 8 22
90 46 182 l43 167 30 -25 c38 -33 115 -104 182 -168 l53 -51 -6 65 c-3 36 -7
81 -9 100 -2 19 -7 71 -10 115 -4 44 -9 94 -11 110 -2 17 -5 54 -6 84 -2 59
11 39 -218 336 l-74 96 55 52 c30 28 87 83 127 120 69 65 77 78 48 83 -7 1
-52 10 -102 19 -49 9 -99 19 -110 21 -11 2 -92 17 -180 34 -181 34 -191 35
-192 18z"/>
</g>
</svg>
